<?xml version="1.0" encoding="UTF-8"?>
<svg width="32px" height="32px" viewBox="0 0 32 32" version="1.1" xmlns="http://www.w3.org/2000/svg" xmlns:xlink="http://www.w3.org/1999/xlink">
    <title>Fill 1</title>
    <g id="Page-1" stroke="none" stroke-width="1" fill="none" fill-rule="evenodd">
        <g id="desktop" transform="translate(-794.000000, -1142.000000)" fill="#575757">
            <g id="deets" transform="translate(132.000000, 722.000000)">
                <path d="M691.714286,445.142857 L664.285714,445.142857 L664.285714,434.112 L668.512,437.737143 L670.426286,439.374857 L671.873143,437.312 L677.617143,429.105143 C677.745143,429.115429 677.869714,429.142857 678,429.142857 C678.130286,429.142857 678.254857,429.115429 678.382857,429.105143 L684.126857,437.312 L685.573714,439.374857 L687.488,437.737143 L691.714286,434.112 L691.714286,445.142857 Z M664.285714,449.714286 L691.714286,449.714286 L691.714286,447.428571 L664.285714,447.428571 L664.285714,449.714286 Z M678,422.285714 C679.261714,422.285714 680.285714,423.308571 680.285714,424.571429 C680.285714,425.834286 679.261714,426.857143 678,426.857143 C676.738286,426.857143 675.714286,425.834286 675.714286,424.571429 C675.714286,423.308571 676.738286,422.285714 678,422.285714 L678,422.285714 Z M686,436 L680.618286,428.310857 C681.796571,427.484571 682.571429,426.12 682.571429,424.571429 C682.571429,422.044571 680.524571,420 678,420 C675.475429,420 673.428571,422.044571 673.428571,424.571429 C673.428571,426.12 674.203429,427.484571 675.381714,428.310857 L670,436 L662,429.142857 L662,445.142857 L662,447.428571 L662,452 L694,452 L694,447.428571 L694,445.142857 L694,429.142857 L686,436 Z" id="Fill-1"></path>
            </g>
        </g>
    </g>
</svg>