<?xml version="1.0" encoding="UTF-8"?>
<svg width="36px" height="30px" viewBox="0 0 36 30" version="1.1" xmlns="http://www.w3.org/2000/svg" xmlns:xlink="http://www.w3.org/1999/xlink">
    <title>Fill 1</title>
    <g id="Page-1" stroke="none" stroke-width="1" fill="none" fill-rule="evenodd">
        <g id="desktop" transform="translate(-397.000000, -1144.000000)" fill="#575757">
            <g id="deets" transform="translate(132.000000, 722.000000)">
                <path d="M297.625,449.692471 L268.375,449.692471 C267.752875,449.692471 267.25,449.176738 267.25,448.537553 L267.25,425.504952 L282.13825,437.729087 C282.16075,437.75447 282.16975,437.789083 282.193375,437.813312 C282.415,438.041757 282.708625,438.147903 283,438.140981 C283.291375,438.147903 283.585,438.041757 283.806625,437.813312 C283.83025,437.789083 283.83925,437.75447 283.86175,437.729087 L298.75,425.504952 L298.75,448.537553 C298.75,449.176738 298.247125,449.692471 297.625,449.692471 L297.625,449.692471 Z M296.687875,424.310806 L283,435.547318 L269.311,424.310806 L296.687875,424.310806 Z M300.996625,423.137427 C301.001125,422.843217 300.895375,422.5467 300.676,422.320562 C300.440875,422.078271 300.125875,421.980202 299.817625,422.003277 L266.182375,422.003277 C265.873,421.980202 265.559125,422.078271 265.324,422.320562 C265.104625,422.5467 264.998875,422.843217 265.003375,423.137427 C265.003375,423.143196 265,423.148965 265,423.154734 L265,450.847389 C265,451.483114 265.502875,452 266.125,452 L299.875,452 C300.497125,452 301,451.483114 301,450.847389 L301,423.154734 C301,423.148965 300.996625,423.143196 300.996625,423.137427 L300.996625,423.137427 Z" id="Fill-1"></path>
            </g>
        </g>
    </g>
</svg>