<?xml version="1.0" encoding="UTF-8"?>
<svg width="22px" height="36px" viewBox="0 0 22 36" version="1.1" xmlns="http://www.w3.org/2000/svg" xmlns:xlink="http://www.w3.org/1999/xlink">
    <title>Phone</title>
    <defs>
        <polygon id="path-1" points="0 0.00011 22 0.00011 22 35.2 0 35.2"></polygon>
    </defs>
    <g id="Page-1" stroke="none" stroke-width="1" fill="none" fill-rule="evenodd">
        <g id="desktop" transform="translate(-996.000000, -1141.000000)">
            <g id="deets" transform="translate(132.000000, 722.000000)">
                <g id="Phone" transform="translate(864.000000, 419.000000)">
                    <mask id="mask-2" fill="white">
                        <use xlink:href="#path-1"></use>
                    </mask>
                    <g id="Clip-2"></g>
                    <path d="M19.8,6.59901 L2.2,6.59901 L2.2,4.40011 C2.2,3.18461 3.1856,2.19901 4.4,2.19901 L17.6,2.19901 C18.8144,2.19901 19.8,3.18461 19.8,4.40011 L19.8,6.59901 Z M2.2,21.99901 L19.8,21.99901 L19.8,8.80011 L2.2,8.80011 L2.2,21.99901 Z M19.8,30.79901 C19.8,32.01341 18.8144,33.00011 17.6,33.00011 L4.4,33.00011 C3.1856,33.00011 2.2,32.01341 2.2,30.79901 L2.2,24.20011 L19.8,24.20011 L19.8,30.79901 Z M17.6,0.00011 L4.4,0.00011 C1.9701,0.00011 0,1.96911 0,4.40011 L0,6.59901 L0,8.80011 L0,21.99901 L0,24.20011 L0,30.79901 C0,33.22891 1.9701,35.20011 4.4,35.20011 L17.6,35.20011 C20.0299,35.20011 22,33.22891 22,30.79901 L22,24.20011 L22,21.99901 L22,8.80011 L22,6.59901 L22,4.40011 C22,1.96911 20.0299,0.00011 17.6,0.00011 L17.6,0.00011 Z M11,30.79901 C12.2144,30.79901 13.2,29.81341 13.2,28.60011 C13.2,27.38461 12.2144,26.40011 11,26.40011 C9.7856,26.40011 8.8,27.38461 8.8,28.60011 C8.8,29.81341 9.7856,30.79901 11,30.79901 L11,30.79901 Z" id="Fill-1" fill="#3C4042" mask="url(#mask-2)"></path>
                </g>
            </g>
        </g>
    </g>
</svg>