<?xml version="1.0" encoding="UTF-8"?>
<svg width="30px" height="30px" viewBox="0 0 30 30" version="1.1" xmlns="http://www.w3.org/2000/svg" xmlns:xlink="http://www.w3.org/1999/xlink">
    <title>seach</title>
    <g id="Page-1" stroke="none" stroke-width="1" fill="none" fill-rule="evenodd">
        <g id="desktop" transform="translate(-1140.000000, -570.000000)" fill="#E30613">
            <g id="Search" transform="translate(399.000000, 549.000000)">
                <path d="M753.856668,23.5714194 C759.552362,23.5714194 764.141917,28.1609744 764.141917,33.8566684 C764.141917,39.5523623 759.552362,44.1419174 753.856668,44.1419174 C748.160974,44.1419174 743.571419,39.5523623 743.571419,33.8566684 C743.571419,28.1609744 748.160974,23.5714194 753.856668,23.5714194 M753.856668,21 C746.771551,21 741,26.7715508 741,33.8566684 C741,40.9417859 746.771551,46.7133367 753.856668,46.7133367 C756.938943,46.7133367 759.767504,45.6247692 761.985354,43.8067757 L768.802615,50.6236085 C769.304042,51.1254638 770.121753,51.1254638 770.623608,50.6236085 C771.125464,50.1217531 771.125464,49.317756 770.623608,48.8159007 L763.806776,41.9990679 C765.622198,39.7816472 766.713337,36.9363717 766.713337,33.8566684 C766.713337,26.7715508 760.941786,21 753.856668,21" id="seach"></path>
            </g>
        </g>
    </g>
</svg>